<svg viewBox="0 0 379 379" xmlns="http://www.w3.org/2000/svg" xmlns:xlink="http://www.w3.org/1999/xlink"> <g id="Page-1" stroke="none" stroke-width="1" fill="none" fill-rule="evenodd"> <g id="Facebook-icon"> <g id="Group-3"> <path d="M378.375,189.813 C378.375,294.297 293.67,379 189.188,379 C84.7,379 0,294.297 0,189.813 C0,85.326 84.7,0.626 189.188,0.626 C293.67,0.626 378.375,85.326 378.375,189.813" id="Fill-1" fill="#2B4B82"></path> <path d="M159.541,246.911 C159.541,229.205 159.473,211.5 159.605,193.797 C159.629,190.813 158.785,189.879 155.8,190.001 C150.283,190.225 144.751,189.978 139.227,190.105 C136.99,190.162 136.166,189.542 136.19045,187.173 C136.302,176.127 136.291,165.074 136.202,154.025 C136.182,151.9 136.822,151.201 138.971,151.249 C144.619,151.379 150.279,151.091 155.917,151.37 C159.185,151.53 159.861,150.369 159.793,147.337 C159.596,138.93 159.596,130.51 159.78,122.102 C160.005,111.833 162.761,102.245 168.878,93.896 C176.618,83.321 187.623,78.487 200.319,77.921 C213.358,77.342 226.43,77.663 239.485,77.5225095 C241.305,77.502 241.848363,78.153 241.84,79.922 C241.782,91.095 241.77,102.272 241.848363,113.445 C241.866,115.433 241.217,116.041 239.266,116.01 C232.987,115.912 226.707,115.96 220.432,115.977 C212.075,116.003 207.073,120.302 206.549,128.574 C206.129,135.206 206.436,141.878 206.282,148.529 C206.225,150.899 207.633,150.736 209.201,150.734 C218.742,150.72 228.287,150.829 237.828,150.666 C240.629,150.617 241.553,151.262 241.233,154.21 C240.032,165.312 239,176.435 238.049,187.564 C237.832,190.075 236.686,190.554 234.43,190.516 C226.903,190.4 219.368,190.436 211.834,190.484 C206.424,190.516 206.949,189.692 206.949,195.209 C206.924,229.864 206.877,264.52 207.026,299.174 C207.041,302.834 206.106,303.742 202.485,303.678 C189.555,303.44 176.618,303.428 163.688,303.684 C160.044,303.756 159.444,302.52 159.473,299.27 C159.611,281.817 159.541,264.365 159.541,246.911" id="Fill-4" fill="#FFFFFE"></path> </g> </g> </g> </svg>
