<svg viewBox="0 0 244 244" xmlns="http://www.w3.org/2000/svg"> <path d="M125.532 71.7814L112.773 92.4298L135.862 109.355L149.005 88.0955L167.562 99.5779L179.057 81.0042L160.472 69.5076L148.977 88.067L125.532 71.7814ZM124.367 127.914L135.834 109.355L154.419 120.837L142.952 139.397L124.367 127.914ZM18 87.6833L20.0461 92.1171C23.7404 112.439 36.3293 126.053 45.6929 131.837C65.9547 144.356 86.9411 136.853 87.8078 136.54C101.42 133.656 113.583 135.304 123.614 141.514C142.199 153.011 147.499 176.572 147.542 176.842L148.778 182.626L111 244H127.5L218.202 97.0625C220.717 98.0573 223.658 97.2331 225.136 94.8456C226.812 92.1314 225.974 88.6071 223.274 86.9302L213.413 80.8479C210.742 79.171 207.19 80.0095 205.513 82.7237C204.121 84.9833 204.561 87.7544 206.309 89.616L202.771 95.3572L202.686 95.1725C194.985 76.4852 185.181 63.3685 173.558 56.2062C152.472 43.1749 133.205 54.0178 132.395 54.4867C115.913 64.0933 104.176 60.9953 97.2424 56.7036C94.2728 54.8562 92.7098 53.0656 92.7098 53.0656C76.4265 38.7837 69.8763 22.6117 66.9919 16.7C64.1217 10.8025 58.9924 22.1428 58.9924 22.1428L18 87.6833ZM69.4074 32.1756L66.4378 36.9789L59.1487 31.2946L64.9743 21.887C66.1678 24.2602 67.2477 28.5803 69.4074 32.1756ZM149.076 165.63L152.415 167.705L150.838 170.22C150.383 168.899 149.772 167.293 149.076 165.63ZM88.703 131.353L91.2605 127.218L93.7613 130.6C92.0988 130.785 90.3938 131.012 88.703 131.353ZM70.7004 118.905L80.746 102.676L60.3848 88.3228L71.8797 69.7634L92.2125 84.1448L104.134 64.8891C106.521 65.4575 109.192 65.7986 112.133 65.7702L125.518 71.7956L132.878 59.9437C133.56 59.56 134.228 59.2189 134.924 58.821C135.151 58.6931 136.928 57.6984 139.84 56.732L160.486 69.5076L167.32 58.4942C168.5 59.0484 169.707 59.7163 170.929 60.4695C175.689 63.4112 180.094 67.5323 184.2 72.6909L179.071 81.0184L195.368 91.0798C196.107 92.6572 196.832 94.2203 197.542 95.8972L187.497 111.899L167.576 99.5779L154.419 120.823L174.183 133.059L162.574 151.533L142.952 139.397L137.965 147.426C134.739 143.674 130.903 140.121 126.243 137.222C124.367 136.086 122.42 135.133 120.445 134.238L124.367 127.9L101.178 111.188L112.773 92.4298L92.2409 84.1448L80.7744 102.69L101.164 111.188L91.6584 126.55L70.7004 118.905ZM25.3886 85.3528L25.687 84.8696L32.8198 91.3498L42.7375 75.3483L35.2637 69.536L47.6395 49.7261L54.2324 56.7747L66.4236 37.0215L77.1796 43.6722C79.0694 46.1734 81.1723 48.6318 83.4031 51.0477L71.8655 69.735L54.204 56.7605L42.7375 75.3483L60.3706 88.3086L50.325 104.537L70.1605 119.772L61.9762 132.988C57.5431 132.064 52.8968 130.401 48.3216 127.573C45.4088 125.769 42.6807 123.566 40.1373 121.022L50.325 104.552L32.8198 91.3498L26.9942 100.772L25.3886 85.3528Z"/> </svg>
