<svg viewBox="0 0 150 224" xmlns="http://www.w3.org/2000/svg"><path clip-rule="evenodd" d="m24.0219 220.795 4.969-1.205c4.2094-1.021 7.7674-3.821 9.7497-7.673l46.1051-89.576c1.1662-2.265 3.2783-3.896 5.7653-4.451l5.646-1.259c3.4027-.759 4.9-4.768 2.8282-7.572-1.0941-1.481-1.2493-3.455-.3999-5.089l1.9477-3.746c1.784-3.431 5.161-5.7461 9.005-6.172l10.276-1.1388c10.771-1.1935 20.094-8.0246 24.478-17.9347 3.89-8.7953 3.394-18.9122-1.339-27.2846l-8.47-14.9844c-1.69-2.9897-2.578-6.3656-2.578-9.7999 0-13.7137-13.537-23.323665-26.483-18.80042l-4.494 1.56992c-2.4693.86286-5.0667 1.30354-7.6827 1.30354h-19.6638c-13.4855 0-25.7255 7.88516-31.3007 20.16426-4.278 9.422-4.0841 20.2698.5278 29.5329l3.6495 7.3301c3.0986 6.2236 2.7873 13.6018-.8246 19.5423l-3.8639 6.3551c-1.786 2.9374-1.6839 6.6491.2609 9.4839 1.6013 2.3338 1.9729 5.2988.9973 7.9558l-2.4874 6.775c-.9545 2.599.3014 5.491 2.853 6.567.7811.33 1.4902.833 1.9377 1.553 1.5936 2.565 2.5054 6.542-3.1799 7.768-5.5483 1.197-7.3389 7.537-7.7682 13.196-.2167 2.858-1.5848 5.509-5.0538 7.088-1.9802.902-3.7911 1.665-5.4211 2.307-2.7689 1.09-3.9245 4.142-5.0898 7.219-.7153 1.888-1.4342 3.787-2.5321 5.247-1.0758 1.43-1.5699 2.087-2.1113 2.703-.46.522-.9541 1.015-1.868 1.927-1.2884 1.285-.9081 2.755-.4801 4.409.233.901.4801 1.856.4801 2.867 0 2.866-2.43173 8.378-5.08456 9.48-1.13344.471-.55174 3.017-.03304 5.288.09902.433.19574.857.2778 1.254.35971 1.74-.97046 3.166-2.27786 4.37-2.22288 2.046-2.90261 5.277-1.69257 8.046l3.64601 8.342c1.05507 2.414 3.74572 3.661 6.26962 2.906l2.8739 1.323c1.7383 2.4 4.7553 3.512 7.6357 2.813zm88.4071-192.7784c4.7 0 8.506-3.7994 8.506-8.4806s-3.806-8.4806-8.506-8.4806-8.506 3.7994-8.506 8.4806 3.806 8.4806 8.506 8.4806zm0 1c5.25 0 9.506-4.2446 9.506-9.4806s-4.256-9.4806-9.506-9.4806-9.506 4.2446-9.506 9.4806 4.256 9.4806 9.506 9.4806zm-28.8779-5.0649c5.6391-.5405 11.0934 2.1786 14.0561 7.007 2.5158 4.0992 6.9798 6.5976 11.7888 6.5976h2.439c9.084 0 16.923 6.3695 18.782 15.261l.116.5515c1.966 9.4022-3.071 18.8655-11.968 22.4857l-7.736 3.1478c-6.897 2.8062-14.5927 2.9377-21.5812.3688l-13.7585-5.0574c-7.9099-2.9077-13.9174-9.4725-16.1135-17.6088l-.9502-3.5201c-3.6934-13.6835 5.8087-27.4011 19.9173-28.7532zm13.2038 7.5299c-2.7629-4.5028-7.8495-7.0385-13.1084-6.5345l-5.0082.48c-13.4923 1.293-22.5793 14.4113-19.0472 27.4971l.9501 3.5201c2.1116 7.823 7.8877 14.1351 15.4932 16.9308l13.7585 5.0574c6.7547 2.483 14.1931 2.3558 20.8591-.3564l7.736-3.1478c8.45-3.4381 13.233-12.4255 11.366-21.3548l-.116-.5515c-1.762-8.4281-9.193-14.4657-17.803-14.4657h-2.439c-5.157 0-9.9439-2.679-12.6411-7.0747z" fill="#fcd81b" fill-rule="evenodd"/><path d="m28.9909 219.59-.5894-2.43zm-4.969 1.205.5894 2.43zm14.7187-8.878-2.2229-1.144zm46.1051-89.576-2.2228-1.144zm5.7653-4.451-.5443-2.44zm5.646-1.259.5443 2.44zm2.8282-7.572-2.0107 1.486zm-.3999-5.089-2.2182-1.153zm1.9477-3.746 2.218 1.153zm9.005-6.172.275 2.4848zm10.276-1.1388.276 2.4848zm24.478-17.9347 2.286 1.0114zm-1.339-27.2846 2.177-1.2302zm-8.47-14.9844 2.177-1.2302zm-29.061-28.60032.824 2.36009zm-4.494 1.56992-.824-2.3601zm-58.6472 21.4678-2.2764-1.0336zm.5278 29.5329-2.238 1.1143zm3.6495 7.3301-2.238 1.1143zm-.8246 19.5423 2.1362 1.2987zm-3.8639 6.3551 2.1362 1.2988zm.2609 9.4839-2.0615 1.4148zm.9973 7.9558 2.3468.862zm-2.4874 6.775 2.3468.861zm2.853 6.567.9719-2.303zm1.9377 1.553-2.1235 1.319zm-3.1799 7.768.527 2.444zm-7.7682 13.196-2.4928-.189zm-5.0538 7.088 1.036 2.276zm-5.4211 2.307-.916-2.326zm-5.0898 7.219 2.338.885zm-2.5321 5.247-1.9981-1.503zm-2.1113 2.703-1.877-1.652zm-1.868 1.927-1.7654-1.77zm-.4801 4.409-2.42032.626zm-4.60446 12.347.95936 2.309zm-.03304 5.288-2.43722.557zm.2778 1.254 2.4483-.506zm-2.27786 4.37-1.69326-1.84zm-1.69257 8.046 2.29076-1.001zm3.64601 8.342 2.29076-1.001zm6.26962 2.906 1.0453-2.271-.8575-.395-.9044.271zm2.8739 1.323 2.0248-1.467-.3843-.53-.5952-.274zm81.221-187.0233 2.1309-1.3075zm-14.0561-7.007.2385 2.4886zm25.8449 13.6046v-2.5zm2.439 0v2.5zm18.782 15.261-2.447.5117v.0001zm.116.5515 2.447-.5117zm-11.968 22.4857.942 2.3157zm-7.736 3.1478.942 2.3157zm-21.5812.3688.8626-2.3465zm-13.7585-5.0574.8626-2.3465zm-16.1135-17.6088-2.4136.6515zm-.9502-3.5201 2.4137-.6515zm19.9173-28.7532-.2385-2.4886zm5.1036.5155.2385 2.4886zm13.1084 6.5345-2.1308 1.3075zm-18.1166-6.0545-.2385-2.4886zm-19.0472 27.4971-2.4136.6515zm.9501 3.5201 2.4137-.6515zm15.4932 16.9308-.8626 2.3464zm13.7585 5.0574-.8626 2.3465zm20.8591-.3564.942 2.3156zm7.736-3.1478.942 2.3156zm11.366-21.3548 2.447-.5117v-.0001zm-.116-.5515-2.447.5117v.0001zm-17.803-14.4657v2.5zm-2.439 0v-2.5zm-34.788 47.3462-2.2649-1.0583zm4.0847 1.932 2.2549 1.0795zm-.9428-2.9518-1.2117 2.1867v.0001zm-49.3484 132.2773-4.969 1.206 1.1788 4.859 4.969-1.206zm8.1162-6.387c-1.6502 3.206-4.612 5.537-8.1162 6.387l1.1788 4.859c4.9147-1.192 9.0687-4.461 11.3831-8.958zm46.1052-89.576-46.1052 89.576 4.4457 2.288 46.1052-89.575zm7.4438-5.747c-3.2111.717-5.9382 2.822-7.4438 5.747l4.4457 2.289c.8266-1.606 2.3238-2.762 4.0868-3.156zm5.6459-1.259-5.6459 1.259 1.0887 4.88 5.6459-1.259zm1.3619-3.646c.9976 1.35.2766 3.28-1.3619 3.646l1.0887 4.88c5.1667-1.153 7.4407-7.239 4.2947-11.497zm-.6074-7.728c-1.2897 2.48-1.054 5.479.6074 7.728l4.0215-2.971c-.527-.713-.602-1.664-.193-2.451zm1.9476-3.7462-1.9476 3.7462 4.4359 2.306 1.948-3.746zm10.9473-7.5036c-4.672.5178-8.779 3.3324-10.9473 7.5036l4.4363 2.3062c1.399-2.6905 4.048-4.5062 7.062-4.8402zm10.277-1.1388-10.277 1.1388.551 4.9696 10.277-1.1388zm22.466-16.4612c-4.023 9.0959-12.58 15.3658-22.466 16.4612l.551 4.9696c11.655-1.2916 21.744-8.6839 26.488-19.4081zm-1.228-25.043c4.344 7.6845 4.799 16.9703 1.228 25.043l4.573 2.0227c4.21-9.5179 3.673-20.4659-1.448-29.5262zm-8.47-14.9845 8.47 14.9845 4.353-2.4605-8.47-14.9844zm-2.902-11.0301c0 3.8654 1 7.6651 2.902 11.0302l4.353-2.4605c-1.478-2.6144-2.255-5.5665-2.255-8.5697zm-23.159-16.44033c11.321-3.95542 23.159 4.44813 23.159 16.44033h5c0-15.43524-15.236-26.25158-29.808-21.16052zm-4.493 1.56993 4.493-1.56993-1.649-4.72019-4.493 1.56992zm-8.5077 1.44344c2.8968 0 5.7729-.48797 8.5077-1.44344l-1.649-4.7202c-2.2048.77026-4.5235 1.16364-6.8587 1.16364zm-19.6638 0h19.6638v-5h-19.6638zm-29.0244 18.69776c5.1698-11.3861 16.5196-18.69776 29.0244-18.69776v-5c-14.4663 0-27.5964 8.45856-33.5771 21.63066zm.4894 27.3852c-4.2765-8.5895-4.4562-18.6484-.4894-27.3852l-4.5527-2.0671c-4.5891 10.1073-4.3811 21.744.5662 31.6808zm3.6495 7.3301-3.6495-7.3301-4.4759 2.2285 3.6495 7.3301zm-.9263 21.9552c4.0578-6.6739 4.4075-14.9631.9263-21.9552l-4.4759 2.2285c2.716 5.4551 2.4431 11.9222-.7227 17.1292zm-3.8639 6.3552 3.8639-6.3552-4.2723-2.5975-3.8639 6.3551zm.1862 6.7709c-1.3884-2.0239-1.4613-4.6738-.1862-6.7709l-4.2723-2.5976c-2.297 3.7778-2.1656 8.5512.3355 12.1975zm1.2826 10.232c1.2547-3.417.7767-7.23-1.2826-10.232l-4.123 2.829c1.1432 1.666 1.4085 3.783.712 5.68zm-2.4874 6.774 2.4874-6.774-4.6936-1.723-2.4874 6.774zm1.4781 3.403c-1.322-.558-1.9726-2.056-1.4781-3.403l-4.6936-1.723c-1.4146 3.853.4466 8.137 4.2279 9.733zm3.0893 2.537c-.8002-1.288-1.9933-2.075-3.0893-2.537l-1.9438 4.607c.4663.196.6913.416.7861.568zm-4.7764 11.531c3.4379-.741 5.709-2.565 6.2472-5.352.4633-2.399-.5608-4.715-1.4708-6.179l-4.247 2.638c.6835 1.1.9122 2.056.8085 2.593-.0359.186-.1159.37-.364.581-.2849.242-.8748.583-2.0279.832zm-5.8023 10.941c.2037-2.685.7214-5.327 1.7172-7.362.9691-1.98 2.2757-3.189 4.0851-3.579l-1.054-4.887c-3.7389.806-6.1017 3.366-7.5223 6.269-1.394 2.849-1.9862 6.207-2.2117 9.181zm-6.5107 9.175c4.3905-1.999 6.2329-5.513 6.5107-9.175l-4.9857-.378c-.1558 2.054-1.0496 3.842-3.5969 5.002zm-5.5411 2.357c1.6711-.658 3.522-1.438 5.5411-2.357l-2.0719-4.551c-1.9414.884-3.7123 1.63-5.3012 2.256zm-3.6678 5.778c.6019-1.589 1.1035-2.891 1.7416-3.941.6105-1.004 1.2211-1.559 1.9262-1.837l-1.832-4.652c-2.0637.813-3.4155 2.328-4.3663 3.891-.9233 1.519-1.5821 3.281-2.1454 4.768zm-2.8721 5.864c1.3528-1.799 2.1886-4.059 2.8721-5.864l-4.6759-1.771c-.7472 1.973-1.3492 3.509-2.1923 4.63zm-2.2323 2.852c.6197-.704 1.18-1.452 2.2323-2.852l-3.9961-3.005c-1.0991 1.462-1.527 2.028-1.9902 2.554zm-1.9796 2.046c.8938-.892 1.4539-1.449 1.9796-2.046l-3.754-3.303c-.3943.448-.8223.877-1.7564 1.809zm.1748 2.013c-.111-.429-.1943-.755-.2527-1.056-.0571-.295-.0738-.488-.0716-.619.0021-.118.0192-.163.024-.175.003-.008.0234-.061.1255-.163l-3.5308-3.54c-1.1503 1.147-1.59558 2.477-1.61794 3.793-.01937 1.141.2909 2.27.48292 3.012zm.5598 3.493c0-1.378-.3381-2.636-.5598-3.493l-4.84062 1.252c.24428.945.40045 1.598.40045 2.241zm-6.6252 11.789c1.18026-.491 2.1372-1.372 2.8697-2.246.755-.9 1.4088-1.956 1.9429-3.021 1.0335-2.062 1.8126-4.554 1.8126-6.522h-4.99997c0 .897-.43672 2.594-1.28236 4.281-.40539.808-.85699 1.516-1.30402 2.049-.46957.56-.81141.781-.95756.842zm1.44481 2.422c-.27327-1.196-.49419-2.192-.54635-2.936-.02644-.378.0103-.475-.00933-.406-.03393.12-.24122.651-.88913.92l-1.91871-4.617c-1.21463.504-1.77425 1.53-2.00169 2.33-.21313.75-.21107 1.52-.16892 2.122.08499 1.214.41428 2.626.6597 3.701zm.28889 1.305c-.08834-.427-.19116-.877-.28889-1.305l-4.87443 1.114c.10032.439.19094.836.26677 1.203zm-3.0329 6.715c.67049-.617 1.54982-1.468 2.19314-2.502.67396-1.082 1.18796-2.528.83976-4.213l-4.89655 1.012c.01142.055.04023.192-.18782.559-.25869.415-.69815.879-1.33505 1.465zm-1.09507 5.206c-.78288-1.792-.34311-3.882 1.09507-5.206l-3.38652-3.679c-3.007585 2.769-3.927265 7.141-2.29008 10.887zm3.64601 8.342-3.64601-8.342-4.58153 2.002 3.64602 8.342zm3.26226 1.512c-1.3133.393-2.7133-.256-3.26226-1.512l-4.58152 2.002c1.56116 3.572 5.54238 5.417 9.27698 4.3zm4.6358 1.447-2.8739-1.323-2.0906 4.542 2.8738 1.323zm6.001 2.655c-1.8942.459-3.8783-.272-5.0215-1.851l-4.0497 2.933c2.3336 3.222 6.3835 4.715 10.25 3.777zm95.0025-198.83c0 3.2944-2.68 5.9806-6.006 5.9806v5c6.075 0 11.006-4.9126 11.006-10.9806zm-6.006-5.9806c3.326 0 6.006 2.6862 6.006 5.9806h5c0-6.068-4.931-10.98064-11.006-10.98064zm-6.006 5.9806c0-3.2944 2.681-5.9806 6.006-5.9806v-5.00004c-6.075 0-11.006 4.91264-11.006 10.98064zm6.006 5.9806c-3.325 0-6.006-2.6862-6.006-5.9806h-5c0 6.068 4.931 10.9806 11.006 10.9806zm7.006-5.9806c0 3.849-3.13 6.9806-7.006 6.9806v5c6.625 0 12.006-5.3576 12.006-11.9806zm-7.006-6.9806c3.876 0 7.006 3.1316 7.006 6.9806h5c0-6.623-5.381-11.98064-12.006-11.98064zm-7.006 6.9806c0-3.849 3.131-6.9806 7.006-6.9806v-5.00004c-6.624 0-12.006 5.35764-12.006 11.98064zm7.006 6.9806c-3.875 0-7.006-3.1316-7.006-6.9806h-5c0 6.623 5.382 11.9806 12.006 11.9806zm-12.6909 3.1346c-3.4621-5.6423-9.8359-8.8196-16.4255-8.1881l.477 4.9772c4.6885-.4494 9.2235 1.8113 11.6868 5.8258zm9.6579 5.4051c-3.94 0-7.597-2.0468-9.6579-5.4051l-4.2617 2.6149c2.97 4.8402 8.2406 7.7902 13.9196 7.7902zm2.439 0h-2.439v5h2.439zm21.229 17.2493c-2.101-10.0499-10.962-17.2493-21.229-17.2493v5c7.9 0 14.718 5.5397 16.335 13.2727zm.116.5515-.116-.5515-4.894 1.0235.116.5514zm-13.473 25.3131c10.016-4.0754 15.686-14.7287 13.473-25.3131l-4.894 1.0234c1.718 8.22-2.685 16.4934-10.464 19.6584zm-7.736 3.1478 7.736-3.1478-1.884-4.6313-7.737 3.1478zm-23.3857.3996c7.5729 2.7837 15.9117 2.6412 23.3857-.3996l-1.885-4.6313c-6.32 2.5715-13.3716 2.692-19.7756.3379zm-13.7585-5.0575 13.7585 5.0575 1.7251-4.693-13.7585-5.0574zm-17.6646-19.3037c2.4075 8.9195 8.9932 16.1162 17.6646 19.3037l1.7251-4.6929c-7.1486-2.6278-12.5777-8.5607-14.5625-15.9138zm-.9502-3.5201.9502 3.5201 4.8272-1.303-.9501-3.5201zm22.0924-31.8933c-15.6494 1.4998-26.1892 16.7154-22.0924 31.8933l4.8273-1.303c-3.2902-12.1891 5.1743-24.4087 17.7421-25.6131zm5.0082-.4799-5.0082.4799.477 4.9772 5.0082-.4799zm.5724 5.9726c4.3083-.4129 8.4755 1.6645 10.7391 5.3534l4.2616-2.6149c-3.2623-5.3168-9.2683-8.3108-15.4777-7.7157zm-5.0082.4799 5.0082-.4799-.477-4.9772-5.0082.48zm-16.8721 24.3572c-3.1288-11.5915 4.9206-23.2118 16.8721-24.3572l-.477-4.9771c-15.0331 1.4406-25.1578 16.0571-21.2223 30.6372zm.9502 3.52-.9502-3.5201-4.8272 1.303.9501 3.5201zm13.942 15.2358c-6.844-2.5158-12.0419-8.196-13.942-15.2358l-4.8273 1.303c2.323 8.6062 8.6774 15.5502 17.0442 18.6257zm13.7585 5.0574-13.7585-5.0574-1.7251 4.6929 13.7585 5.0575zm19.0536-.3256c-6.089 2.4776-12.8833 2.5937-19.0536.3256l-1.7251 4.693c7.3391 2.6978 15.4207 2.5597 22.6637-.3873zm7.737-3.1478-7.737 3.1478 1.885 4.6313 7.736-3.1478zm9.861-18.5274c1.62 7.7471-2.53 15.5445-9.861 18.5274l1.884 4.6313c9.569-3.8933 14.985-14.0706 12.871-24.1821zm-.116-.5514.116.5514 4.894-1.0235-.115-.5514zm-15.356-12.4775c7.427 0 13.836 5.2077 15.356 12.4774l4.895-1.0234c-2.005-9.5866-10.457-16.454-20.251-16.454zm-2.439 0h2.439v-5h-2.439zm-14.7719-8.2672c3.1518 5.1366 8.7459 8.2672 14.7719 8.2672v-5c-4.288 0-8.268-2.2274-10.5103-5.8821zm-78.8468 184.9279 61.0957-130.7562-4.5299-2.1166-61.0958 130.7568zm60.6605-130.9621-62.3065 130.1471 4.5098 2.159 62.3065-130.147zm.1004.3146c-.1114-.0618-.1554-.1997-.1004-.3145l4.5098 2.159c1.0875-2.2717.2169-4.9974-1.9861-6.2181zm.3348-.1087c-.0591.1263-.2128.1762-.3348.1086l2.4233-4.3735c-2.4119-1.3364-5.4512-.3498-6.6184 2.1483z"/></svg>