<svg viewBox="0 0 144 144" xmlns="http://www.w3.org/2000/svg"><path d="m72 144c-39.6 0-71.99996948-32.4-71.99996948-72s32.39996948-71.99996948 71.99996948-71.99996948 72 32.39996948 72 71.99996948-32.4 72-72 72zm-10.8-111.6c.9 6.3 6.3 11.7 12.6 11.7 6.3-.9 11.7-6.3 11.7-12.6-.9-6.3-6.2999-11.7-12.6-11.7-7.1999 0-11.7 5.4-11.7 12.6zm23.4 51.3v-22.5l31.5-10.8c.9-.9 1.8-1.8.9-3.6-.9-.9-1.8-1.8-3.6-1.8h-1.8l-39.6 6.3-39.6-7.2h-3.6c-.9.9-1.8 1.8-1.8 3.6 0 .9.9 1.8 1.8 2.7l30.6 9.9v23.4l-10.8 34.2c-.9 1.8-.9 3.6.9 4.5.9.9 3.6.9 4.5-.9l18-37.8 18 38.7c.9.9 2.7 1.8 4.5.9.9-.9 1.8-2.7.9-4.5z"/></svg>