<svg height="248" width="414" xmlns="http://www.w3.org/2000/svg"><path d="m116.681 90.209c0 5.082.55 9.203 1.511 12.225 1.099 3.022 2.473 6.319 4.396 9.89.687 1.099.961 2.198.961 3.16 0 1.373-.824 2.747-2.609 4.12l-8.654 5.77c-1.237.824-2.473 1.236-3.572 1.236-1.373 0-2.747-.687-4.121-1.923a42.513 42.513 0 0 1 -4.945-6.456c-1.373-2.335-2.747-4.945-4.258-8.105-10.714 12.638-24.176 18.956-40.385 18.956-11.538 0-20.741-3.296-27.472-9.89-6.73-6.593-10.165-15.384-10.165-26.373 0-11.676 4.121-21.154 12.5-28.297 8.38-7.143 19.506-10.714 33.654-10.714 4.67 0 9.478.412 14.56 1.099 5.083.686 10.303 1.785 15.797 3.022v-10.029c0-10.44-2.198-17.72-6.456-21.978-4.395-4.258-11.813-6.319-22.39-6.319-4.808 0-9.753.55-14.835 1.786-5.083 1.236-10.028 2.747-14.835 4.67-2.198.962-3.846 1.511-4.808 1.786s-1.648.412-2.198.412c-1.923 0-2.884-1.373-2.884-4.258v-6.73c0-2.199.274-3.847.961-4.809.687-.961 1.923-1.922 3.846-2.884 4.808-2.473 10.577-4.533 17.308-6.181 6.73-1.785 13.872-2.609 21.428-2.609 16.347 0 28.297 3.709 35.99 11.126 7.554 7.418 11.401 18.681 11.401 33.791v44.507h.274zm-55.769 20.879c4.533 0 9.203-.824 14.148-2.473 4.945-1.648 9.341-4.67 13.05-8.79 2.198-2.61 3.846-5.495 4.67-8.792s1.374-7.28 1.374-11.95v-5.77c-3.984-.961-8.242-1.785-12.638-2.335-4.395-.55-8.653-.824-12.912-.824-9.203 0-15.934 1.786-20.467 5.494-4.533 3.71-6.73 8.929-6.73 15.797 0 6.456 1.648 11.264 5.082 14.56 3.297 3.435 8.104 5.083 14.423 5.083zm110.302 14.835c-2.472 0-4.121-.412-5.219-1.374-1.099-.824-2.061-2.747-2.885-5.357l-32.28-106.181c-.824-2.747-1.237-4.533-1.237-5.495 0-2.197 1.099-3.434 3.297-3.434h13.462c2.61 0 4.395.413 5.357 1.374 1.099.824 1.923 2.747 2.747 5.357l23.077 90.934 21.429-90.934c.686-2.747 1.511-4.533 2.609-5.357 1.099-.824 3.022-1.374 5.495-1.374h10.989c2.61 0 4.396.413 5.494 1.374 1.099.824 2.061 2.747 2.61 5.357l21.704 92.033 23.763-92.033c.825-2.747 1.786-4.533 2.748-5.357 1.099-.824 2.884-1.374 5.357-1.374h12.774c2.198 0 3.435 1.1 3.435 3.434 0 .687-.138 1.374-.275 2.198-.138.825-.412 1.923-.962 3.434l-33.104 106.182c-.824 2.747-1.786 4.533-2.885 5.357s-2.884 1.373-5.219 1.373h-11.814c-2.61 0-4.395-.412-5.494-1.373-1.099-.962-2.061-2.747-2.61-5.495l-21.291-88.599-21.154 88.462c-.687 2.747-1.511 4.533-2.61 5.494-1.099.962-3.022 1.374-5.495 1.374zm176.511 3.709c-7.143 0-14.285-.824-21.154-2.473-6.868-1.648-12.225-3.434-15.796-5.494-2.198-1.236-3.709-2.61-4.258-3.846a9.69 9.69 0 0 1 -.825-3.846v-7.006c0-2.885 1.099-4.258 3.16-4.258.824 0 1.648.137 2.472.412s2.061.824 3.434 1.374a74.767 74.767 0 0 0 15.11 4.807c5.495 1.099 10.852 1.649 16.346 1.649 8.654 0 15.385-1.511 20.055-4.533 4.671-3.022 7.143-7.418 7.143-13.05 0-3.846-1.236-7.005-3.709-9.615-2.472-2.61-7.143-4.945-13.873-7.143l-19.918-6.181c-10.027-3.16-17.445-7.83-21.978-14.011-4.533-6.044-6.868-12.775-6.868-19.918 0-5.77 1.236-10.852 3.709-15.247 2.472-4.396 5.769-8.242 9.89-11.264 4.121-3.16 8.791-5.494 14.286-7.143 5.494-1.648 11.263-2.335 17.307-2.335 3.022 0 6.182.137 9.204.55 3.159.412 6.044.961 8.928 1.51 2.747.687 5.357 1.374 7.83 2.198 2.472.824 4.395 1.649 5.769 2.473 1.923 1.099 3.297 2.198 4.121 3.434.824 1.099 1.236 2.61 1.236 4.533v6.456c0 2.884-1.099 4.395-3.159 4.395-1.099 0-2.885-.549-5.22-1.648-7.83-3.571-16.621-5.357-26.374-5.357-7.829 0-14.011 1.236-18.269 3.846s-6.456 6.593-6.456 12.225c0 3.846 1.374 7.143 4.121 9.753s7.83 5.22 15.11 7.555l19.505 6.181c9.891 3.16 17.033 7.555 21.292 13.187 4.258 5.632 6.318 12.088 6.318 19.231 0 5.907-1.236 11.264-3.571 15.934-2.473 4.67-5.769 8.791-10.028 12.088-4.258 3.434-9.34 5.907-15.247 7.692-6.181 1.923-12.637 2.885-19.643 2.885z" fill="#252f3e"/><g fill="#f90"><path d="m373.687 196.39c-45.192 33.379-110.852 51.099-167.308 51.099-79.121 0-150.412-29.258-204.258-77.885-4.258-3.846-.412-9.066 4.67-6.044 58.242 33.792 130.083 54.259 204.396 54.259 50.137 0 105.22-10.44 155.906-31.868 7.555-3.435 14.011 4.945 6.594 10.439z"/><path d="m392.506 174.962c-5.77-7.418-38.187-3.572-52.885-1.786-4.396.549-5.083-3.297-1.099-6.181 25.824-18.132 68.269-12.913 73.214-6.869 4.945 6.182-1.373 48.627-25.549 68.956-3.709 3.16-7.28 1.511-5.632-2.609 5.494-13.599 17.72-44.231 11.951-51.511z"/></g></svg>