<svg width="250" height="250" xmlns="http://www.w3.org/2000/svg"><path d="M250 125.025c0-16.514-20.74-32.164-52.538-41.87 7.338-32.316 4.077-58.027-10.293-66.259-3.312-1.93-7.185-2.845-11.415-2.845v11.331c2.344 0 4.23.457 5.809 1.321 6.931 3.963 9.937 19.055 7.593 38.465-.56 4.777-1.478 9.807-2.599 14.94-9.987-2.44-20.893-4.32-32.358-5.54-6.879-9.4-14.014-17.936-21.199-25.406 16.613-15.396 32.206-23.83 42.805-23.83V14c-14.013 0-32.358 9.96-50.907 27.236-18.549-17.175-36.894-27.033-50.907-27.033v11.331c10.548 0 26.192 8.385 42.805 23.68-7.134 7.468-14.268 15.954-21.046 25.355-11.516 1.22-22.421 3.1-32.41 5.589a152.904 152.904 0 0 1-2.649-14.736c-2.395-19.41.56-34.501 7.44-38.516 1.529-.914 3.516-1.32 5.86-1.32V14.253c-4.28 0-8.153.915-11.517 2.846-14.319 8.231-17.529 33.892-10.14 66.107C20.638 92.963 0 108.562 0 125.025c0 16.514 20.74 32.165 52.538 41.87-7.338 32.317-4.077 58.028 10.293 66.259 3.313 1.931 7.185 2.846 11.466 2.846 14.013 0 32.358-9.959 50.907-27.236 18.549 17.175 36.893 27.033 50.907 27.033 4.28 0 8.153-.915 11.516-2.846 14.32-8.231 17.53-33.892 10.141-66.107C229.362 157.139 250 141.489 250 125.025zm-66.347-33.892c-1.886 6.555-4.23 13.313-6.88 20.071-2.089-4.065-4.28-8.13-6.675-12.195-2.344-4.065-4.841-8.028-7.338-11.89 7.236 1.067 14.217 2.388 20.893 4.014zm-23.339 54.116c-3.975 6.859-8.051 13.363-12.281 19.41A265.724 265.724 0 0 1 125 165.675c-7.695 0-15.389-.355-22.931-.965a280.006 280.006 0 0 1-12.332-19.309 264.28 264.28 0 0 1-10.6-20.223c3.16-6.809 6.727-13.618 10.55-20.274 3.974-6.86 8.05-13.364 12.28-19.41A265.922 265.922 0 0 1 125 84.476c7.695 0 15.389.356 22.931.965 4.23 6.047 8.357 12.5 12.332 19.309a264.304 264.304 0 0 1 10.599 20.224c-3.21 6.808-6.726 13.617-10.548 20.274zm16.459-6.606a217.432 217.432 0 0 1 7.033 20.224 229.303 229.303 0 0 1-20.995 4.065c2.497-3.913 4.994-7.927 7.338-12.043 2.344-4.065 4.535-8.181 6.624-12.246zm-51.671 54.217c-4.739-4.878-9.478-10.315-14.166-16.26 4.586.203 9.274.356 14.013.356 4.79 0 9.529-.102 14.166-.356a198.484 198.484 0 0 1-14.013 16.26zm-37.913-29.928c-7.236-1.067-14.217-2.389-20.893-4.015 1.886-6.554 4.23-13.313 6.88-20.071 2.089 4.065 4.28 8.13 6.675 12.195a336.514 336.514 0 0 0 7.338 11.891zm37.658-105.741c4.739 4.878 9.478 10.315 14.166 16.26-4.586-.204-9.274-.356-14.013-.356-4.79 0-9.529.102-14.166.356a198.467 198.467 0 0 1 14.013-16.26zM87.138 87.119c-2.497 3.913-4.994 7.927-7.338 12.043a287.011 287.011 0 0 0-6.624 12.195 217.358 217.358 0 0 1-7.032-20.224 248.159 248.159 0 0 1 20.994-4.014zm-46.117 63.618c-18.039-7.673-29.708-17.734-29.708-25.712 0-7.977 11.67-18.089 29.708-25.71 4.383-1.88 9.173-3.558 14.116-5.133 2.904 9.959 6.726 20.325 11.465 30.945-4.688 10.569-8.459 20.884-11.313 30.792-5.044-1.575-9.834-3.302-14.268-5.182zm27.416 72.611c-6.93-3.964-9.937-19.055-7.593-38.465.56-4.777 1.478-9.807 2.599-14.939 9.987 2.439 20.892 4.319 32.358 5.538 6.879 9.401 14.014 17.937 21.199 25.407-16.613 15.396-32.206 23.831-42.805 23.831-2.293-.051-4.23-.509-5.758-1.372zm120.872-38.719c2.395 19.41-.561 34.501-7.44 38.515-1.529.915-3.516 1.322-5.86 1.322-10.548 0-26.192-8.385-42.805-23.679 7.134-7.47 14.268-15.955 21.046-25.356 11.516-1.219 22.421-3.099 32.409-5.589 1.172 5.132 2.089 10.061 2.65 14.787zm19.619-33.892c-4.383 1.88-9.173 3.556-14.116 5.132-2.904-9.96-6.726-20.325-11.465-30.945 4.688-10.569 8.459-20.884 11.313-30.793 5.044 1.576 9.834 3.303 14.319 5.183 18.039 7.673 29.708 17.734 29.708 25.711-.051 7.978-11.72 18.09-29.759 25.712z" fill="#61DAFB"/><path d="M125 148c12.703 0 23-10.521 23-23.5S137.703 101 125 101s-23 10.521-23 23.5 10.297 23.5 23 23.5z" fill="#61DAFB"/></svg>