<svg width="250" height="250" xmlns="http://www.w3.org/2000/svg"><path d="M173.224 171.519c9.225-.954 16.224-8.896 15.906-18.427-.318-9.53-8.272-17.155-17.816-17.155h-.635c-9.864.318-17.498 8.577-17.18 18.426.318 4.765 2.227 8.895 5.09 11.754-10.817 21.286-27.36 36.853-52.174 49.879-16.861 8.895-34.358 12.072-51.855 9.849-14.317-1.907-25.452-8.26-32.452-18.745-10.18-15.567-11.133-32.405-2.544-49.242 6.045-12.073 15.588-20.968 21.633-25.416-1.272-4.13-3.181-11.119-4.136-16.202-46.13 33.358-41.357 78.47-27.359 99.756 10.498 15.885 31.814 25.733 55.356 25.733 6.362 0 12.724-.635 19.087-2.223 40.722-7.943 71.582-32.088 89.079-67.987zm55.992-39.394c-24.179-28.275-59.81-43.842-100.531-43.842h-5.09c-2.864-5.718-8.909-9.531-15.589-9.531h-.637c-9.861.318-17.496 8.577-17.179 18.427.319 9.53 8.272 17.155 17.816 17.155h.636c6.999-.318 13.044-4.766 15.588-10.802h5.727c24.179 0 47.084 6.989 67.764 20.65 15.906 10.484 27.359 24.145 33.721 40.665 5.409 13.343 5.09 26.368-.636 37.488-8.908 16.838-23.86 26.051-43.584 26.051-12.726 0-24.815-3.813-31.178-6.672-3.499 3.177-9.862 8.26-14.316 11.438 13.68 6.353 27.678 9.848 41.04 9.848 30.541 0 53.128-16.838 61.718-33.676 9.226-18.426 8.589-50.196-15.27-77.199zM67.603 176.918c.318 9.532 8.271 17.156 17.815 17.156h.637c9.862-.317 17.497-8.578 17.178-18.426-.317-9.532-8.271-17.155-17.815-17.155h-.636c-.636 0-1.592 0-2.226.316-13.044-21.603-18.453-45.111-16.543-70.527C67.284 69.22 73.647 52.7 84.783 39.04c9.225-11.755 27.04-17.473 39.13-17.79 33.722-.636 48.037 41.3 48.992 58.138 4.136.952 11.135 3.177 15.907 4.765C184.994 32.687 153.181 6 122.641 6 94.008 6 67.603 26.65 57.103 57.149 42.47 97.813 52.013 136.89 69.83 167.706c-1.59 2.223-2.545 5.718-2.226 9.213v-.001z" fill="#764ABC"/></svg>